# xmcd
#
# Track frame offsets:
#	150
#	14912
#	29667
#	43902
#	60310
#	74490
#	89940
#	105300
#	119240
#	134472
#	148772
#	162132
#	176075
#	191882
#	207535
#	222787
#	238445
#	252005
#	266742
#	280815
#	296430
#	311835
#	327287
#
# Disc length: 4537 seconds
#
# Revision: 1
# Processed by: cddbd v1.5.2PL0 Copyright (c) Steve Scherf et al.
# Submitted via: EasyCDDAExtractor 10.0.5.1
#
DISCID=8411b717
DTITLE=Various Artist - The Complete Recordings, Vol.04 (Frog)
DYEAR=2002
DGENRE=Blues
TTITLE0=Bessie Smith - Soft Pedal Blues (Take 1)
TTITLE1=Bessie Smith - Soft Pedal Blues (Take 2)
TTITLE2=Bessie Smith - Dixie Flyer Blues
TTITLE3=Bessie Smith - Nashville Women's Blues (Take 2)
TTITLE4=Bessie Smith - Nashville Women's Blues (Take 3)
TTITLE5=Bessie Smith - Careless Love (Take 1)
TTITLE6=Bessie Smith - Careless Love (Take 2)
TTITLE7=Bessie Smith - J.C. Holmes Blues
TTITLE8=Bessie Smith - I Ain't Gonna Play No Second Fiddle
TTITLE9=Bessie Smith - He's Gone Blues
TTITLE10=Bessie Smith - Nobody's Blues But Mine
TTITLE11=Bessie Smith - I Ain't Got Nobody
TTITLE12=Bessie Smith and Clara Smith - My Man Blues
TTITLE13=Bessie Smith - New Gulf Coast Blues
TTITLE14=Bessie Smith - Florida Bound Blues
TTITLE15=Bessie Smith - At the Christmas Ball
TTITLE16=Bessie Smith - I've Been Mistreated and I Don't Like It
TTITLE17=Bessie Smith - Red Mountain Blues
TTITLE18=Bessie Smith - Golden Rule Blues
TTITLE19=Bessie Smith - Lonesome Desert Blues
TTITLE20=Bessie Smith - Squeeze Me
TTITLE21=Bessie Smith - Them "Has Been" Blues
TTITLE22=Bessie Smith - Squeeze Me
EXTD=
EXTT0=
EXTT1=
EXTT2=
EXTT3=
EXTT4=
EXTT5=
EXTT6=
EXTT7=
EXTT8=
EXTT9=
EXTT10=
EXTT11=
EXTT12=
EXTT13=
EXTT14=
EXTT15=
EXTT16=
EXTT17=
EXTT18=
EXTT19=
EXTT20=
EXTT21=
EXTT22=
PLAYORDER=
